<svg xmlns="http://www.w3.org/2000/svg" width="7000" height="3000">
<marker xmlns="http://www.w3.org/2000/svg" id="lineEnd" viewBox="0 0 10 10" refX="5" refY="5" markerUnits="strokeWidth" markerWidth="4" markerHeight="3" orient="auto">
<rect x="0" y="0" width="10" height="10" fill="red" />
</marker>
<rect x="0" y="0" width="7000" height="3000" style="fill:white;stroke:black;stroke-width:1;fill-opacity:0;stroke-opacity:0.6" />
<rect x="1901" y="2219" width="83" height="195" style="fill:blue;stroke:black;stroke-width:1;fill-opacity:0.2;stroke-opacity:0.6" />
<rect x="4969" y="1510" width="161" height="309" style="fill:blue;stroke:black;stroke-width:1;fill-opacity:0.2;stroke-opacity:0.6" />
<rect x="4278" y="2260" width="281" height="20" style="fill:blue;stroke:black;stroke-width:1;fill-opacity:0.2;stroke-opacity:0.6" />
<rect x="6247" y="1208" width="196" height="141" style="fill:blue;stroke:black;stroke-width:1;fill-opacity:0.2;stroke-opacity:0.6" />
<rect x="4147" y="2100" width="157" height="179" style="fill:blue;stroke:black;stroke-width:1;fill-opacity:0.2;stroke-opacity:0.6" />
<rect x="3853" y="2078" width="250" height="72" style="fill:gray;stroke:black;stroke-width:1;fill-opacity:0.2;stroke-opacity:0.6" />
<rect x="6774" y="2760" width="226" height="61" style="fill:gray;stroke:black;stroke-width:1;fill-opacity:0.2;stroke-opacity:0.6" />
<rect x="4972" y="1052" width="201" height="97" style="fill:gray;stroke:black;stroke-width:1;fill-opacity:0.2;stroke-opacity:0.6" />
<rect x="4522" y="1287" width="345" height="117" style="fill:gray;stroke:black;stroke-width:1;fill-opacity:0.2;stroke-opacity:0.6" />
<rect x="189" y="2623" width="375" height="121" style="fill:gray;stroke:black;stroke-width:1;fill-opacity:0.2;stroke-opacity:0.6" />
<rect x="499" y="171" width="291" height="99" style="fill:gray;stroke:black;stroke-width:1;fill-opacity:0.2;stroke-opacity:0.6" />
<rect x="2210" y="2694" width="142" height="50" style="fill:gray;stroke:black;stroke-width:1;fill-opacity:0.2;stroke-opacity:0.6" />
<rect x="0" y="2048" width="59" height="35" style="fill:gray;stroke:black;stroke-width:1;fill-opacity:0.2;stroke-opacity:0.6" />
<rect x="6017" y="1494" width="201" height="126" style="fill:gray;stroke:black;stroke-width:1;fill-opacity:0.2;stroke-opacity:0.6" />
<rect x="1437" y="96" width="59" height="120" style="fill:gray;stroke:black;stroke-width:1;fill-opacity:0.2;stroke-opacity:0.6" />
<rect x="1377" y="1761" width="266" height="42" style="fill:gray;stroke:black;stroke-width:1;fill-opacity:0.2;stroke-opacity:0.6" />
<rect x="296" y="622" width="213" height="167" style="fill:gray;stroke:black;stroke-width:1;fill-opacity:0.2;stroke-opacity:0.6" />
<rect x="5338" y="2272" width="58" height="79" style="fill:gray;stroke:black;stroke-width:1;fill-opacity:0.2;stroke-opacity:0.6" />
<rect x="914" y="2577" width="219" height="91" style="fill:gray;stroke:black;stroke-width:1;fill-opacity:0.2;stroke-opacity:0.6" />
<rect x="5305" y="1923" width="390" height="66" style="fill:gray;stroke:black;stroke-width:1;fill-opacity:0.2;stroke-opacity:0.6" />
<rect x="5728" y="1389" width="375" height="102" style="fill:gray;stroke:black;stroke-width:1;fill-opacity:0.2;stroke-opacity:0.6" />
<rect x="1742" y="833" width="344" height="109" style="fill:gray;stroke:black;stroke-width:1;fill-opacity:0.2;stroke-opacity:0.6" />
<rect x="0" y="2255" width="68" height="173" style="fill:gray;stroke:black;stroke-width:1;fill-opacity:0.2;stroke-opacity:0.6" />
<rect x="622" y="646" width="403" height="78" style="fill:gray;stroke:black;stroke-width:1;fill-opacity:0.2;stroke-opacity:0.6" />
<rect x="1185" y="660" width="84" height="130" style="fill:gray;stroke:black;stroke-width:1;fill-opacity:0.2;stroke-opacity:0.6" />
<rect x="6095" y="2408" width="275" height="76" style="fill:gray;stroke:black;stroke-width:1;fill-opacity:0.2;stroke-opacity:0.6" />
<circle cx="648" cy="1045" r="10" style="fill:blue;stroke:blue;stroke-width:3;fill-opacity:0.1;stroke-opacity:0.8" />
<circle cx="447" cy="1589" r="10" style="fill:blue;stroke:blue;stroke-width:3;fill-opacity:0.1;stroke-opacity:0.8" />
<circle cx="4861" cy="579" r="10" style="fill:blue;stroke:blue;stroke-width:3;fill-opacity:0.1;stroke-opacity:0.8" />
<circle cx="110" cy="2909" r="10" style="fill:orange;stroke:orange;stroke-width:3;fill-opacity:0.1;stroke-opacity:0.8" />
<line x1="100" y1="2970" x2="110" y2="2970" marker-end="url(#lineEnd)" marker-start="url(#lineEnd)" style="stroke:red;stroke-width:3;stroke-opacity:0.8" />
<line x1="100" y1="2970" x2="100" y2="2930" marker-end="url(#lineEnd)" marker-start="url(#lineEnd)" style="stroke:red;stroke-width:3;stroke-opacity:0.8" />
<line x1="100" y1="2930" x2="110" y2="2930" marker-end="url(#lineEnd)" marker-start="url(#lineEnd)" style="stroke:red;stroke-width:3;stroke-opacity:0.8" />
<line x1="100" y1="2930" x2="100" y2="2920" marker-end="url(#lineEnd)" marker-start="url(#lineEnd)" style="stroke:red;stroke-width:3;stroke-opacity:0.8" />
<line x1="100" y1="2920" x2="110" y2="2920" marker-end="url(#lineEnd)" marker-start="url(#lineEnd)" style="stroke:red;stroke-width:3;stroke-opacity:0.8" />
<line x1="110" y1="2970" x2="120" y2="2970" marker-end="url(#lineEnd)" marker-start="url(#lineEnd)" style="stroke:red;stroke-width:3;stroke-opacity:0.8" />
<line x1="110" y1="2970" x2="110" y2="2930" marker-end="url(#lineEnd)" marker-start="url(#lineEnd)" style="stroke:red;stroke-width:3;stroke-opacity:0.8" />
<line x1="110" y1="2930" x2="120" y2="2930" marker-end="url(#lineEnd)" marker-start="url(#lineEnd)" style="stroke:red;stroke-width:3;stroke-opacity:0.8" />
<line x1="110" y1="2930" x2="110" y2="2920" marker-end="url(#lineEnd)" marker-start="url(#lineEnd)" style="stroke:red;stroke-width:3;stroke-opacity:0.8" />
<line x1="110" y1="2920" x2="120" y2="2920" marker-end="url(#lineEnd)" marker-start="url(#lineEnd)" style="stroke:red;stroke-width:3;stroke-opacity:0.8" />
<line x1="120" y1="2970" x2="120" y2="2930" marker-end="url(#lineEnd)" marker-start="url(#lineEnd)" style="stroke:red;stroke-width:3;stroke-opacity:0.8" />
<line x1="120" y1="2930" x2="120" y2="2920" marker-end="url(#lineEnd)" marker-start="url(#lineEnd)" style="stroke:red;stroke-width:3;stroke-opacity:0.8" />
<line x1="110" y1="2920" x2="110" y2="2909" marker-end="url(#lineEnd)" marker-start="url(#lineEnd)" style="stroke:red;stroke-width:3;stroke-opacity:0.8" />
</svg>
